<?xml version="1.0" encoding="UTF-8"?><svg id="_イヤー_2" width="80" height="80" xmlns="http://www.w3.org/2000/svg" viewBox="0 0 246.16 292.15" preserveAspectRatio="xMidYMid meet"><defs><style>.cls-1{fill:#979a9b;}.cls-2{fill:#fff;}.cls-3{fill:#028ba3;}.cls-4{fill:#0d879a;}.cls-5{fill:#b5b7b5;}</style></defs><g id="_イヤー_1-2"><rect class="cls-2" x=".03" width="246.13" height="237.58"/><g><path class="cls-1" d="M7.41,270.23c.24,1.72,.72,2.94,1.41,3.8,1.31,1.55,3.53,2.3,6.63,2.3,1.87,0,3.4-.22,4.57-.6,2.19-.8,3.31-2.19,3.31-4.33,0-1.23-.54-2.19-1.63-2.83-1.1-.64-2.83-1.23-5.16-1.77l-4.01-.85c-3.98-.91-6.71-1.87-8.15-2.89-2.54-1.71-3.79-4.38-3.79-8.02,0-3.34,1.23-6.09,3.69-8.28,2.49-2.25,6.04-3.31,10.8-3.31,3.98,0,7.35,1.01,10.15,3.1,2.81,2.08,4.31,5.07,4.41,9.03h-7.51c-.11-2.25-1.09-3.82-2.94-4.76-1.25-.64-2.8-.93-4.65-.93-2.03,0-3.69,.4-4.92,1.2-1.23,.8-1.81,1.92-1.81,3.37,0,1.34,.59,2.36,1.79,3,.77,.42,2.43,.95,4.95,1.55l6.52,1.55c2.89,.63,5.03,1.55,6.44,2.67,2.22,1.76,3.31,4.27,3.31,7.59s-1.28,6.23-3.93,8.5c-2.62,2.25-6.33,3.37-11.12,3.37s-8.77-1.12-11.57-3.34c-2.81-2.22-4.2-5.27-4.2-9.12H7.41Z"/><path class="cls-1" d="M60.1,245.49c1.39,.59,2.57,1.45,3.47,2.57,.8,.96,1.44,2.03,1.87,3.15,.45,1.12,.72,2.46,.72,3.9,0,1.76-.48,3.53-1.36,5.24-.86,1.69-2.35,2.89-4.38,3.58,1.68,.69,2.89,1.71,3.61,2.94,.72,1.28,1.1,3.21,1.1,5.82v2.51c0,1.71,.05,2.83,.18,3.47,.16,.94,.7,1.66,1.44,2.08v.96h-8.55c-.27-.86-.43-1.5-.53-2.03-.22-1.02-.32-2.09-.32-3.15l-.05-3.47c-.05-2.4-.48-3.95-1.23-4.76-.8-.8-2.27-1.17-4.44-1.17h-7.59v14.59h-7.56v-37.2h17.74c2.54,.06,4.52,.38,5.88,.96m-16.06,5.5v10h8.39c1.63,0,2.89-.21,3.72-.64,1.47-.7,2.19-2.08,2.19-4.17,0-2.25-.73-3.74-2.14-4.55-.78-.42-1.98-.64-3.58-.64h-8.58Z"/><path class="cls-1" d="M79.16,270.23c.27,1.72,.75,2.94,1.44,3.8,1.31,1.55,3.53,2.3,6.63,2.3,1.87,0,3.37-.22,4.57-.6,2.19-.8,3.31-2.19,3.31-4.33,0-1.23-.54-2.19-1.63-2.83-1.12-.64-2.81-1.23-5.19-1.77l-4.01-.85c-3.96-.91-6.68-1.87-8.12-2.89-2.57-1.71-3.79-4.38-3.79-8.02,0-3.34,1.23-6.09,3.72-8.28,2.46-2.25,6.01-3.31,10.77-3.31,3.98,0,7.32,1.01,10.16,3.1,2.81,2.08,4.3,5.07,4.41,9.03h-7.48c-.14-2.25-1.12-3.82-2.97-4.76-1.26-.64-2.81-.93-4.62-.93-2.06,0-3.71,.4-4.94,1.2-1.23,.8-1.82,1.92-1.82,3.37,0,1.34,.59,2.36,1.76,3,.8,.42,2.43,.95,5,1.55l6.49,1.55c2.86,.63,5.02,1.55,6.44,2.67,2.22,1.76,3.31,4.27,3.31,7.59s-1.28,6.23-3.93,8.5c-2.67,2.25-6.33,3.37-11.12,3.37s-8.77-1.12-11.57-3.34c-2.81-2.22-4.2-5.27-4.2-9.12h7.38Z"/><path class="cls-1" d="M122.16,248c3.02-3.05,6.81-4.54,11.44-4.54,6.23,0,10.74,2.03,13.58,6.14,1.63,2.3,2.43,4.6,2.56,6.95h-7.75c-.53-1.82-1.12-3.15-1.92-4.06-1.37-1.6-3.45-2.41-6.15-2.41s-4.97,1.13-6.57,3.42c-1.6,2.25-2.38,5.51-2.38,9.68s.83,7.27,2.51,9.36c1.69,2.08,3.82,3.1,6.44,3.1s4.71-.85,6.1-2.68c.77-.95,1.42-2.35,1.95-4.27h7.7c-.7,4.03-2.38,7.33-5.11,9.89-2.76,2.51-6.25,3.79-10.5,3.79-5.32,0-9.48-1.71-12.48-5.13-3.05-3.47-4.54-8.18-4.54-14.21,0-6.47,1.71-11.49,5.13-15.02"/><path class="cls-1" d="M178.28,277.98c-2.32,2.83-5.83,4.28-10.56,4.28s-8.29-1.44-10.56-4.28c-2.32-2.88-3.47-6.3-3.47-10.36s1.15-7.38,3.47-10.32c2.27-2.89,5.82-4.33,10.56-4.33s8.23,1.44,10.56,4.33c2.33,2.94,3.5,6.36,3.5,10.32s-1.17,7.48-3.5,10.36m-5.75-4.01c1.12-1.5,1.71-3.61,1.71-6.36s-.59-4.87-1.71-6.36c-1.12-1.5-2.75-2.24-4.84-2.24s-3.69,.74-4.84,2.24c-1.15,1.5-1.73,3.64-1.73,6.36s.59,4.86,1.73,6.36c1.15,1.49,2.73,2.25,4.84,2.25s3.71-.75,4.84-2.25"/><path class="cls-1" d="M202.2,253.18s.29,.05,.59,.05v7.33c-.43,0-.83-.06-1.15-.06-.4-.05-.67-.05-.89-.05-2.91,0-4.81,.96-5.82,2.83-.56,1.06-.85,2.72-.85,4.92v13.12h-7.25v-27.5h6.87v4.81c1.12-1.82,2.11-3.1,2.91-3.8,1.34-1.12,3.1-1.66,5.21-1.66h.37Z"/><path class="cls-1" d="M230.15,256.77c2.24,2.4,3.37,5.88,3.37,10.47s-1.07,8.55-3.29,11.06c-2.19,2.57-5,3.79-8.44,3.79-2.22,0-4.06-.53-5.51-1.63-.8-.61-1.55-1.47-2.35-2.64v14.32h-7.11v-38.32h6.9v4.06c.77-1.17,1.6-2.14,2.48-2.83,1.6-1.23,3.53-1.82,5.72-1.82,3.23,0,5.98,1.18,8.23,3.53m-5.51,5.18c-1.01-1.6-2.56-2.46-4.76-2.46-2.65,0-4.46,1.28-5.43,3.74-.54,1.28-.75,2.94-.75,4.97,0,3.2,.83,5.45,2.54,6.73,1.02,.75,2.22,1.17,3.64,1.17,2,0,3.55-.8,4.62-2.35,1.1-1.55,1.58-3.59,1.58-6.2,0-2.08-.48-3.95-1.44-5.61"/><rect class="cls-1" x="238.46" y="273.82" width="7.64" height="7.5"/><path class="cls-4" d="M208.69,124.32c-4.46-2.25-10.02-3.37-16.62-3.37-7.43,0-13.33,1.44-17.72,4.38-4.41,2.89-6.63,6.95-6.63,12.13,0,4.81,2.14,8.39,6.52,10.74,2.81,1.55,8.74,3.42,17.83,5.54l23.43,5.53c10.32,2.46,18.04,5.66,23.2,9.72,3.05,2.41,5.51,5.24,7.43,8.5v-36.03h-26.62c-.51-8.07-4.11-13.79-10.82-17.15"/><path class="cls-3" d="M10.85,10.53C16.68,5.29,24.32,1.77,33.73,0H.03V26.29c2.14-5.93,5.75-11.17,10.82-15.77"/><path class="cls-3" d="M154.81,227c-10.1-7.96-15.15-18.92-15.15-32.82h26.7c.88,6.09,2.57,10.69,5.11,13.68,4.65,5.5,12.56,8.28,23.84,8.28,6.76,0,12.21-.75,16.41-2.19,7.99-2.78,12-7.96,12-15.53,0-4.41-1.98-7.82-5.91-10.24-3.9-2.4-10.07-4.48-18.57-6.3l-14.48-3.15c-14.24-3.15-24.05-6.58-29.34-10.26-9.06-6.2-13.58-15.82-13.58-28.97,0-12.03,4.46-21.97,13.26-29.88,8.82-7.96,21.81-11.92,38.91-11.92,14.24,0,26.46,3.74,36.56,11.22,9.14,6.79,14.3,16.36,15.58,28.65V0H64.03c8.28,1.71,15.71,4.97,22.26,9.83,10.1,7.48,15.42,18.34,15.87,32.55h-26.88c-.51-8.02-4.09-13.73-10.8-17.15-4.49-2.25-10.02-3.37-16.68-3.37-7.41,0-13.28,1.5-17.69,4.38-4.41,2.89-6.6,6.95-6.6,12.19,0,4.76,2.16,8.34,6.49,10.69,2.8,1.6,8.74,3.42,17.8,5.56l23.49,5.53c10.31,2.43,18.01,5.64,23.17,9.7,7.99,6.31,11.95,15.45,11.95,27.37s-4.68,22.4-14.17,30.47c-9.46,8.07-22.82,12.13-40.09,12.13s-31.45-4.01-41.58-11.97c-4.54-3.58-8.07-7.8-10.58-12.61v122.29H179.75c-9.94-1.82-18.28-5.35-24.93-10.58"/><path class="cls-4" d="M0,55.05v40.03H22.16c.83,6.14,2.57,10.69,5.1,13.74,4.62,5.5,12.56,8.23,23.81,8.23,6.76,0,12.23-.7,16.43-2.14,7.97-2.81,11.95-7.96,11.95-15.56,0-4.43-1.95-7.85-5.85-10.26-3.9-2.35-10.1-4.43-18.6-6.25l-14.48-3.21c-14.27-3.15-24-6.58-29.37-10.26-5.24-3.58-8.95-8.39-11.14-14.33"/><path class="cls-3" d="M236.46,226.83c-6.26,5.35-14.24,8.93-23.95,10.75h33.65v-22.45c-2.35,4.28-5.58,8.18-9.7,11.7"/><path class="cls-5" d="M150.94,79.75c3.82,1.65,7,4.05,9.65,7.21,2.22,2.62,3.88,5.51,5.16,8.71,1.28,3.15,1.92,6.79,1.92,10.83,0,4.89-1.23,9.7-3.66,14.43-2.48,4.73-6.6,8.09-12.27,10.02,4.76,1.93,8.13,4.65,10.1,8.18,2,3.52,2.97,8.87,2.97,16.09v6.94c0,4.7,.21,7.91,.56,9.57,.59,2.68,1.93,4.65,3.98,5.88v2.6h-23.76c-.67-2.27-1.1-4.14-1.42-5.53-.56-2.89-.83-5.82-.88-8.87l-.16-9.57c-.11-6.58-1.23-10.96-3.42-13.15-2.17-2.19-6.26-3.31-12.24-3.31h-21.06v40.43h-21.06V77.13h49.3c7.06,.16,12.48,1.02,16.28,2.62m-44.52,15.28v27.69h23.2c4.62,0,8.07-.56,10.37-1.66,4.06-1.97,6.09-5.82,6.09-11.65,0-6.2-1.98-10.43-5.93-12.56-2.19-1.23-5.53-1.81-9.94-1.81h-23.78Z"/></g></g></svg>